{"title":"Pinga.1080p.Video.Song.Bajirao.Mastani.TheCodeGuru","uid":13445707,"size":196057140,"categoryP":"video","categoryS":"music_videos","magnet":"?xt=urn:btih:2e4be71a15ce05b41d5cdbb5fc626ed197c1e804&amp;dn=Pinga.1080p.Video.Song.Bajirao.Mastani.TheCodeGuru&amp;tr=udp%3A%2F%2Ftracker.leechers-paradise.org%3A6969&amp;tr=udp%3A%2F%2Fzer0day.ch%3A1337&amp;tr=udp%3A%2F%2Fopen.demonii.com%3A1337&amp;tr=udp%3A%2F%2Ftracker.coppersurfer.tk%3A6969&amp;tr=udp%3A%2F%2Fexodus.desync.com%3A6969","seeders":1,"leechers":0,"uploader":"TheCodeGuru","files":8,"time":1454747184,"description":"General \r\nComplete name : Pinga.1080p.Video.Song.Bajirao.Mastani.TheCodeGuru.mp4 \r\nFormat : MPEG-4 \r\nFormat profile : Base Media \r\nCodec ID : isom (isom/iso2/avc1/mp41) \r\nFile size : 166 MiB \r\nDuration : 2mn 49s \r\nOverall bit rate mode : Variable \r\nOverall bit rate : 8 240 Kbps \r\nWriting application : Lavf54.63.104 \r\n\r\nVideo \r\nID : 1 \r\nFormat : AVC \r\nFormat/Info : Advanced Video Codec \r\nFormat profile :    \r\nFormat settings, CABAC : Yes \r\nFormat settings, ReFrames : 4 frames \r\nCodec ID : avc1 \r\nCodec ID/Info : Advanced Video Coding \r\nDuration : 2mn 49s \r\nBit rate : 8 108 Kbps \r\nWidth : 1 920 pixels \r\nHeight : 1 080 pixels \r\nDisplay aspect ratio : 16:9 \r\nFrame rate mode : Constant \r\nFrame rate : 25.000 fps \r\nColor space : YUV \r\nChroma subsampling : 4:2:0 \r\nBit depth : 8 bits \r\nScan type : Progressive \r\nBits/(Pixel*Frame) : 0.156 \r\nStream size : 164 MiB (98%) \r\nWriting library : x264 core 123 r2189 35cf912 \r\n\r\nAudio \r\nID : 2 \r\nFormat : AAC \r\nFormat/Info : Advanced Audio Codec \r\nFormat profile : LC \r\nCodec ID : 40 \r\nDuration : 2mn 49s \r\nBit rate mode : Variable \r\nBit rate : 126 Kbps \r\nMaximum bit rate : 128 Kbps \r\nChannel(s) : 2 channels \r\nChannel positions : Front: L R \r\nSampling rate : 44.1 KHz \r\nFrame rate : 43.066 fps (1024 spf) \r\nCompression mode : Lossy \r\nStream size : 2.53 MiB (2%) \r\nLanguage : unk \r\nDefault : Yes \r\nAlternate group : 1 \r\n\r\n\r\nScreenshot Links \nhttp://imgur.com/cmsKXpi \nhttp://imgur.com/AiXQeRn \nhttp://imgur.com/ITdF4Tu \nhttp://imgur.com/YRMKqST \nhttp://imgur.com/yroi0RE","torrent":{"xt":"urn:btih:2e4be71a15ce05b41d5cdbb5fc626ed197c1e804","amp;dn":"Pinga.1080p.Video.Song.Bajirao.Mastani.TheCodeGuru","amp;tr":["udp%3A%2F%2Ftracker.leechers-paradise.org%3A6969","udp%3A%2F%2Fzer0day.ch%3A1337","udp%3A%2F%2Fopen.demonii.com%3A1337","udp%3A%2F%2Ftracker.coppersurfer.tk%3A6969","udp%3A%2F%2Fexodus.desync.com%3A6969"],"infoHash":"2e4be71a15ce05b41d5cdbb5fc626ed197c1e804","infoHashBuffer":{"type":"Buffer","data":[46,75,231,26,21,206,5,180,29,92,219,181,252,98,110,209,151,193,232,4]},"announce":[],"urlList":[]}}